<svg width="32" height="26" viewBox="0 0 32 26" fill="none" xmlns="http://www.w3.org/2000/svg">
<path d="M31.9905 4.24113C32.1748 5.76241 29.6402 6.6383 28.4881 6.6383C27.2438 6.6383 26.8291 6.03901 25.2622 6.03901C20.3773 6.03901 10.4693 9.08156 6.87478 11.2021C12.5892 13.0461 19.2713 13.5071 20.9303 14.4291C21.8059 14.9362 24.1562 17.0106 24.4327 19.0851C24.5249 19.9149 24.2484 20.8369 23.4189 21.4823C21.852 22.6348 13.8334 26 11.6675 26C9.31722 26 5.6766 23.8794 5.53835 22.9113C5.49227 22.4043 5.58443 22.0355 5.86094 21.6667C6.78261 20.2837 9.77806 21.2057 17.0593 18.578C13.0961 17.6099 4.20192 16.9184 1.25255 14.0603C0.423045 13.2766 0.146542 12.0319 0.0543742 11.2021C-0.0838772 10.0957 -0.0377935 8.25177 1.16039 7.19149C3.46458 5.16312 15.0316 0 23.7875 0C26.7369 0 29.3637 0.87589 31.4835 3.18085C31.714 3.50355 31.8983 3.87234 31.9905 4.24113Z" fill="white"/>
</svg>
