<svg width="28" height="32" viewBox="0 0 28 32" fill="none" xmlns="http://www.w3.org/2000/svg">
<path d="M20.9528 0C22.5468 0 24.1199 0.932038 25.6719 2.79611C27.224 4.66019 28 6.33786 28 7.82913C28 8.8233 27.5596 9.32039 26.6787 9.32039C26.1753 9.32039 25.4412 9.13398 24.4764 8.76117C23.5116 8.34693 22.5258 8.1398 21.5191 8.1398C20.5543 8.1398 19.1071 8.4712 17.1775 9.13398C15.2899 9.79676 14.3461 10.6667 14.3461 11.7437C14.3461 12.1579 14.9124 12.7586 16.0449 13.5456C17.1775 14.3327 18.415 15.1405 19.7573 15.9689C21.0996 16.7974 22.3371 17.9573 23.4697 19.4485C24.6022 20.8984 25.1685 22.4932 25.1685 24.233C25.1685 25.9314 23.8891 27.6505 21.3303 29.3903C18.8135 31.1301 15.8352 32 12.3955 32C8.99775 32 6.0824 31.2337 3.64944 29.701C1.21648 28.1683 0 26.5942 0 24.9786C0 23.3631 0.671161 22.5553 2.01348 22.5553C2.5588 22.5553 3.20899 22.7625 3.96404 23.1767C6.06142 24.378 8.66217 24.9786 11.7663 24.9786C14.9124 24.9786 16.4854 24.5644 16.4854 23.7359C16.4854 22.9074 15.8772 21.9961 14.6607 21.0019C13.4861 19.9663 12.1858 19.0136 10.7596 18.1437C9.37528 17.2738 8.07491 16.2175 6.85843 14.9748C5.6839 13.6906 5.09663 12.4479 5.09663 11.2466C5.09663 9.00971 7.15206 6.58641 11.2629 3.9767C15.3738 1.32557 18.6037 0 20.9528 0Z" fill="#1E293B"/>
</svg>
